<?xml version="1.0" encoding="UTF-8" standalone="no"?>
<svg xmlns:dc="http://purl.org/dc/elements/1.1/" xmlns:cc="http://creativecommons.org/ns#" xmlns:rdf="http://www.w3.org/1999/02/22-rdf-syntax-ns#" xmlns:svg="http://www.w3.org/2000/svg" xmlns="http://www.w3.org/2000/svg" xmlns:xlink="http://www.w3.org/1999/xlink" xmlns:sodipodi="http://sodipodi.sourceforge.net/DTD/sodipodi-0.dtd" xmlns:inkscape="http://www.inkscape.org/namespaces/inkscape" viewBox="0 0 268.66109 89.576185" version="1.1" id="svg69" sodipodi:docname="logo-white.svg" inkscape:version="1.0.2 (394de47547, 2021-03-26)" inkscape:export-xdpi="407.35001" inkscape:export-ydpi="407.35001" width="268.6611" height="89.576187">
  <metadata id="metadata73">
    <rdf:RDF>
      <cc:Work rdf:about="">
        <dc:format>image/svg+xml</dc:format>
        <dc:type rdf:resource="http://purl.org/dc/dcmitype/StillImage"/>
        <dc:title>Logo Nivel20 Black/Red</dc:title>
      </cc:Work>
    </rdf:RDF>
  </metadata>
  <sodipodi:namedview inkscape:document-rotation="0" pagecolor="#ffffff" bordercolor="#666666" borderopacity="1" objecttolerance="10" gridtolerance="10" guidetolerance="10" inkscape:pageopacity="0" inkscape:pageshadow="2" inkscape:window-width="1996" inkscape:window-height="1308" id="namedview71" showgrid="false" inkscape:zoom="3.546859" inkscape:cx="42.792661" inkscape:cy="63.542921" inkscape:window-x="434" inkscape:window-y="27" inkscape:window-maximized="0" inkscape:current-layer="svg69" showguides="false"/>
  <defs id="defs4">
    <style id="style2">.cls-1{fill:#1d1d1b;}</style>
    <radialGradient inkscape:collect="always" xlink:href="#linearGradient1989" id="radialGradient1991-3" cx="50.953316" cy="86.74247" fx="50.953316" fy="86.74247" r="11.747112" gradientTransform="matrix(3.7795276,0,0,3.6733223,210.98471,-254.54008)" gradientUnits="userSpaceOnUse"/>
    <linearGradient inkscape:collect="always" id="linearGradient1989">
      <stop style="stop-color:#ffffff;stop-opacity:0.45648246" offset="0" id="stop1985"/>
      <stop style="stop-color:#ffffff;stop-opacity:0;" offset="1" id="stop1987"/>
    </linearGradient>
    <radialGradient inkscape:collect="always" xlink:href="#linearGradient1989" id="radialGradient1991" cx="40.120518" cy="72.482819" fx="40.120518" fy="72.482819" r="11.747112" gradientTransform="matrix(3.7795276,0,0,3.6733223,210.98471,-254.54008)" gradientUnits="userSpaceOnUse"/>
    <clipPath clipPathUnits="userSpaceOnUse" id="clipPath1215">
      <rect style="fill:#cccccc" id="rect1217" width="265.46741" height="86.5578" x="159.17769" y="0.18068638" ry="27.688499" rx="0"/>
    </clipPath>
    <clipPath clipPathUnits="userSpaceOnUse" id="clipPath1219">
      <rect style="fill:#cccccc" id="rect1221" width="265.46741" height="86.5578" x="159.17769" y="0.18068638" ry="27.688499" rx="0"/>
    </clipPath>
    <clipPath clipPathUnits="userSpaceOnUse" id="clipPath1223">
      <rect style="fill:#cccccc" id="rect1225" width="265.46741" height="86.5578" x="159.17769" y="0.18068638" ry="27.688499" rx="0"/>
    </clipPath>
    <clipPath clipPathUnits="userSpaceOnUse" id="clipPath1227">
      <rect style="fill:#cccccc" id="rect1229" width="265.46741" height="86.5578" x="158.7935" y="-2.3422983" ry="27.688499" rx="0"/>
    </clipPath>
    <clipPath clipPathUnits="userSpaceOnUse" id="clipPath1231">
      <rect style="fill:#cccccc" id="rect1233" width="265.46741" height="86.5578" x="159.17769" y="0.18068638" ry="27.688499" rx="0"/>
    </clipPath>
  </defs>
  <title id="title6">Logo Nivel20 Black/Red</title>
  <g inkscape:groupmode="layer" id="layer2" inkscape:label="Fondo" style="display:none" transform="translate(-158.91484,1.2581283)">
    <rect style="display:inline;fill:#cccccc;stroke-width:0.794143" id="rect1181" width="268.6611" height="89.576187" x="158.91484" y="-1.2581283"/>
  </g>
  <g id="Capa_1" data-name="Capa 1" style="display:none;fill:#d40000" transform="translate(-158.95484,3.531113)">
    <path class="cls-1" d="m 506.18,399.4 0.4,0.35 c 0,-0.15 0.05,-0.32 0.07,-0.48 z m -47.92,4.54 -0.82,2.57 h 2.07 l 1.35,-4.22 z" transform="translate(-99,-354.48)" id="path8" style="fill:#d40000"/>
    <path class="cls-1" d="m 506.65,399.27 c 0,0.16 0,0.33 -0.07,0.48 l -0.4,-0.35 z" transform="translate(-99,-354.48)" id="path10" style="fill:#d40000"/>
    <path class="cls-1" d="m 436.82,386.37 5,21.92 q 2.82,-1.94 6.24,-4.55 z m 6.67,29.16 1.42,6.21 7.82,-6.21 z m 39.51,-36.12 -11.58,-10 -1.59,5 a 13.09,13.09 0 0 1 3.53,3.46 11.12,11.12 0 0 1 2,6.33 13.93,13.93 0 0 1 -1.44,6.26 20,20 0 0 1 -5.21,6.3 87,87 0 0 1 -7.84,5.52 l -2.6,1.65 c -1.28,0.81 -2.66,1.66 -4.14,2.57 h 10.53 a 11.64,11.64 0 0 0 3.25,-0.27 2.56,2.56 0 0 0 1.19,-1.05 8.09,8.09 0 0 0 0.84,-2.69 l 0.25,-1.44 h 6.08 l -1.27,6.89 6.83,-1.87 a 29,29 0 0 1 -2.29,-12.34 q 0,-7.67 2.39,-12.54 c 0.35,-0.62 0.68,-1.19 1.07,-1.78 z m 15.66,36.87 a 19,19 0 0 1 -10.09,-2.53 16.68,16.68 0 0 1 -5.69,-5.89 l -8.18,2.24 -1.24,7 h -4.13 l -0.38,-1.53 h -9.16 l 31,21.17 9.09,-20.45 c -0.45,-0.02 -0.88,-0.01 -1.27,-0.01 z m -25.45,-47.91 10.93,9.41 a 17.09,17.09 0 0 1 4.53,-4.08 19.19,19.19 0 0 1 10.21,-2.61 19.82,19.82 0 0 1 8.62,1.79 l 0.07,-9.7 z m 44.68,24.8 a 43.74,43.74 0 0 1 -0.54,7.29 l 3.15,0.55 z m -11.56,8.26 -13.83,3.79 c 0.13,0.24 0.26,0.47 0.4,0.68 1.54,2.35 3.49,3.52 5.83,3.52 a 6.77,6.77 0 0 0 5.56,-3.09 v 0 0 0 q 0.17,-0.23 0.33,-0.48 a 12.13,12.13 0 0 0 1.53,-3.69 v 0 l 0.32,-0.73 z m -1.84,-20.14 a 6.86,6.86 0 0 0 -5.92,-3.34 c -2.26,0 -4.15,1.18 -5.69,3.53 a 10.63,10.63 0 0 0 -1.22,2.77 l 15.23,13.11 c 0.09,-1.13 0.13,-2.35 0.13,-3.66 q -0.02,-8.56 -2.58,-12.41 z m 2.14,18.46 c 0,-0.15 0.05,-0.32 0.07,-0.48 l -0.47,0.13 z m -16,-6.05 a 32.35,32.35 0 0 0 1.15,9.67 l 14.49,-4 -15.09,-13 a 41.86,41.86 0 0 0 -0.64,7.33 z m 26.36,8.7 a 18.73,18.73 0 0 1 -1.25,3.58 18.06,18.06 0 0 1 -6.69,7.7 17.62,17.62 0 0 1 -6.87,2.37 v 0 L 494.92,432.38 520.07,403 Z M 509.46,368 v 6 a 16.49,16.49 0 0 1 2.81,2.33 z m -53.22,47.52 -0.17,-0.13 -0.16,0.13 -9.46,7.52 38.64,12.18 z m 10.26,-60.41 -27.07,23.53 3.57,-1.34 a 17,17 0 0 1 5.45,-4 22,22 0 0 1 9.84,-2.17 h 0.95 l 10.5,-4 z m -3.14,16.53 a 18.52,18.52 0 0 1 3.9,1.34 l 0.78,0.38 1.28,-4 z m -1.58,9.16 a 9.3,9.3 0 0 0 -6.15,-1.92 11,11 0 0 0 -4.95,1 8,8 0 0 0 -3.29,3 7.65,7.65 0 0 0 -1.19,4.1 15.65,15.65 0 0 0 0.19,2.13 l -5.11,0.45 8.37,12.92 q 3.06,-2.38 6.54,-5.26 a 31.1,31.1 0 0 0 6.28,-6.49 c 0.14,-0.22 0.27,-0.44 0.39,-0.65 a 9.43,9.43 0 0 0 1.21,-4.35 2.17,2.17 0 0 0 0,-0.26 6,6 0 0 0 -2.29,-4.66 z m -20.69,-0.69 -4.78,1.89 3.42,5.27 c 0,-0.2 0,-0.4 0,-0.6 a 15,15 0 0 1 1.36,-6.55 z m 27.29,-25.64 3.23,12.13 31.4,-4.75 z m -27.29,25.64 -4.78,1.89 3.42,5.27 c 0,-0.2 0,-0.4 0,-0.6 a 15,15 0 0 1 1.36,-6.55 z m 20.69,0.69 a 9.3,9.3 0 0 0 -6.15,-1.92 11,11 0 0 0 -4.95,1 8,8 0 0 0 -3.29,3 7.65,7.65 0 0 0 -1.19,4.1 15.65,15.65 0 0 0 0.19,2.13 l -5.11,0.45 8.37,12.92 q 3.06,-2.38 6.54,-5.26 a 31.1,31.1 0 0 0 6.28,-6.49 l 1.6,-5 a 2.17,2.17 0 0 0 0,-0.26 6,6 0 0 0 -2.29,-4.66 z" transform="translate(-99,-354.48)" id="path12" style="fill:#d40000"/>
    <path class="cls-1" d="m 439.72,386.62 c 0,0.2 0,0.4 0,0.6 l -3.41,-5.22 4.78,-1.83 a 15,15 0 0 0 -1.37,6.45 z" transform="translate(-99,-354.48)" id="path14" style="fill:#d40000"/>
    <path class="cls-1" d="m 464.08,385.52 a 2.17,2.17 0 0 1 0,0.26 l -1.6,5 a 31.1,31.1 0 0 1 -6.28,6.49 q -3.48,2.88 -6.54,5.26 l -8.37,-12.92 5.11,-0.45 a 15.65,15.65 0 0 1 -0.19,-2.13 7.65,7.65 0 0 1 1.19,-4.1 8,8 0 0 1 3.29,-3 11,11 0 0 1 4.95,-1 9.3,9.3 0 0 1 6.15,1.92 6,6 0 0 1 2.29,4.67 z" transform="translate(-99,-354.48)" id="path16" style="fill:#d40000"/>
    <path class="cls-1" d="m 448.08,403.74 q -3.42,2.61 -6.24,4.55 l -5,-21.92 z" transform="translate(-99,-354.48)" id="path18" style="fill:#d40000"/>
    <path class="cls-1" d="m 458.26,403.94 -0.82,2.57 h -3.32 c 1.48,-0.91 2.88,-1.76 4.14,-2.57 z" transform="translate(-99,-354.48)" id="path20" style="fill:#d40000"/>
    <polygon class="cls-1" points="345.91,67.26 344.49,61.05 353.73,61.05 " id="polygon22" style="fill:#d40000"/>
    <polygon class="cls-1" points="357.24,61.05 386.08,80.75 347.44,68.58 356.91,61.05 " id="polygon24" style="fill:#d40000"/>
    <path class="cls-1" d="m 499.83,416.25 -9.09,20.45 -31,-21.17 h 9.16 l 0.38,1.53 h 4.13 l 1.24,-7 8.18,-2.24 a 16.68,16.68 0 0 0 5.69,5.89 19,19 0 0 0 10.09,2.53 c 0.39,0.04 0.82,0.03 1.22,0.01 z" transform="translate(-99,-354.48)" id="path26" style="fill:#d40000"/>
    <path class="cls-1" d="m 520.07,403 -25.25,29.43 7.26,-16.33 v 0 a 17.62,17.62 0 0 0 6.87,-2.37 18.06,18.06 0 0 0 6.69,-7.7 18.73,18.73 0 0 0 1.25,-3.58 z" transform="translate(-99,-354.48)" id="path28" style="fill:#d40000"/>
    <path class="cls-1" d="m 520.45,401 -3.15,-0.55 a 43.74,43.74 0 0 0 0.54,-7.29 z" transform="translate(-99,-354.48)" id="path30" style="fill:#d40000"/>
    <path class="cls-1" d="m 512.23,376.32 a 16.49,16.49 0 0 0 -2.81,-2.33 v -6 z" transform="translate(-99,-354.48)" id="path32" style="fill:#d40000"/>
    <path class="cls-1" d="m 482,381.19 q -2.4,4.88 -2.39,12.54 a 29,29 0 0 0 2.29,12.34 l -6.9,1.87 1.22,-6.88 h -6.08 l -0.25,1.44 a 8.09,8.09 0 0 1 -0.84,2.69 2.56,2.56 0 0 1 -1.19,1.05 11.64,11.64 0 0 1 -3.25,0.27 h -5.14 l 1.35,-4.22 a 87,87 0 0 0 7.84,-5.52 20,20 0 0 0 5.21,-6.3 13.93,13.93 0 0 0 1.44,-6.26 11.12,11.12 0 0 0 -2,-6.33 13.09,13.09 0 0 0 -3.53,-3.46 l 1.59,-5 11.58,10 c -0.34,0.58 -0.67,1.15 -0.95,1.77 z" transform="translate(-99,-354.48)" id="path34" style="fill:#d40000"/>
    <path class="cls-1" d="m 469.32,369.38 -1.28,4 -0.78,-0.38 a 18.52,18.52 0 0 0 -3.9,-1.34 z" transform="translate(-99,-354.48)" id="path36" style="fill:#d40000"/>
    <path class="cls-1" d="m 507.52,363.18 -0.07,9.7 a 19.82,19.82 0 0 0 -8.62,-1.79 19.19,19.19 0 0 0 -10.21,2.61 17.09,17.09 0 0 0 -4.53,4.08 l -10.93,-9.41 z" transform="translate(-99,-354.48)" id="path38" style="fill:#d40000"/>
    <polygon class="cls-1" points="372.6,12.14 369.37,0 404,7.39 " id="polygon40" style="fill:#d40000"/>
    <path class="cls-1" d="m 469.7,367.11 -10.5,4 h -0.95 a 22,22 0 0 0 -9.84,2.17 17,17 0 0 0 -5.45,4 l -3.53,1.35 27.07,-23.53 z" transform="translate(-99,-354.48)" id="path42" style="fill:#d40000"/>
    <path class="cls-1" d="m 504.26,406.29 1.86,-4.17 a 12.13,12.13 0 0 1 -1.53,3.69 q -0.16,0.26 -0.33,0.48 z" transform="translate(-99,-354.48)" id="path44" style="fill:#d40000"/>
    <path class="cls-1" d="m 456.07,415.4 -0.16,0.13 h 0.33 z" transform="translate(-99,-354.48)" id="path46" style="fill:#d40000"/>
    <path class="cls-1" d="m 506.28,401.43 c 0,0.23 -0.1,0.46 -0.16,0.68 l 0.32,-0.73 z" transform="translate(-99,-354.48)" id="path48" style="fill:#d40000"/>
    <path class="cls-1" d="m 506.28,401.43 c 0,0.23 -0.1,0.46 -0.16,0.68 v 0 l -1.86,4.17 v 0 0 0 a 6.77,6.77 0 0 1 -5.56,3.09 c -2.34,0 -4.29,-1.17 -5.83,-3.52 -0.14,-0.21 -0.27,-0.44 -0.4,-0.68 z" transform="translate(-99,-354.48)" id="path50" style="fill:#d40000"/>
    <path class="cls-1" d="m 506.18,399.4 -14.49,4 a 32.35,32.35 0 0 1 -1.15,-9.67 41.86,41.86 0 0 1 0.55,-7.28 z" transform="translate(-99,-354.48)" id="path52" style="fill:#d40000"/>
    <path class="cls-1" d="m 507,393.7 c 0,1.31 0,2.53 -0.13,3.66 l -15.23,-13.11 a 10.63,10.63 0 0 1 1.22,-2.77 c 1.54,-2.35 3.43,-3.53 5.69,-3.53 a 6.86,6.86 0 0 1 5.92,3.34 q 2.53,3.86 2.53,12.41 z" transform="translate(-99,-354.48)" id="path54" style="fill:#d40000"/>
  </g>
  <g style="display:none;fill:#000000" id="Capa_2" data-name="Capa 2" transform="translate(-158.95484,3.531113)">
    <g style="fill:#000000" id="layer4">
      <g style="fill:#000000" id="text1079">
        <path style="fill:#000000" id="path181" class="cls-1" d="m 141.67,394 a 21.67,21.67 0 0 1 -6.12,15.56 20.8,20.8 0 0 1 -15.61,6.59 H 103 a 12.51,12.51 0 0 0 -3.69,0.52 l -0.27,-0.39 a 4.62,4.62 0 0 0 3,-4.59 v -35.55 a 4.64,4.64 0 0 0 -2.77,-4.39 l 0.27,-0.39 a 14.27,14.27 0 0 0 3.75,0.46 h 16.72 a 20.79,20.79 0 0 1 15.61,6.58 21.91,21.91 0 0 1 6.05,15.6 z m -11.39,0 a 11.22,11.22 0 0 0 -2.9,-7.75 9.47,9.47 0 0 0 -7.44,-3.29 h -6.58 v 22 h 6.58 a 9.55,9.55 0 0 0 7.44,-3.23 11.22,11.22 0 0 0 2.9,-7.73 z" transform="translate(-99,-354.48)"/>
        <path style="fill:#000000" id="path183" class="cls-1" d="m 188,371.75 a 4.65,4.65 0 0 0 -2.76,4.39 v 22.35 a 17.52,17.52 0 0 1 -5.73,13.23 20.07,20.07 0 0 1 -27.46,0 17.52,17.52 0 0 1 -5.73,-13.23 v -22.28 a 4.6,4.6 0 0 0 -3,-4.46 l 0.27,-0.39 a 11.59,11.59 0 0 0 3.62,0.46 h 9.21 a 14.29,14.29 0 0 0 3.76,-0.46 l 0.26,0.39 a 4.65,4.65 0 0 0 -2.76,4.39 v 22.35 a 6.92,6.92 0 0 0 2.37,5.36 8.17,8.17 0 0 0 5.66,2.13 8.41,8.41 0 0 0 5.73,-2.07 7,7 0 0 0 2.37,-5.42 v -22.28 a 4.61,4.61 0 0 0 -3,-4.46 l 0.27,-0.39 a 11.64,11.64 0 0 0 3.62,0.46 h 9.3 a 14.27,14.27 0 0 0 3.75,-0.46 z" transform="translate(-99,-354.48)"/>
        <path style="fill:#000000" id="path185" class="cls-1" d="m 237.34,416.18 -0.27,0.39 a 11.94,11.94 0 0 0 -3.62,-0.46 h -9.22 a 14.7,14.7 0 0 0 -3.75,0.46 l -0.26,-0.39 a 5.32,5.32 0 0 0 2.43,-2.52 l -18.76,-22.28 v 20.34 a 4.61,4.61 0 0 0 3,4.46 l -0.26,0.39 a 11.94,11.94 0 0 0 -3.62,-0.46 h -9.22 a 13.73,13.73 0 0 0 -3.75,0.46 l -0.27,-0.39 a 4.64,4.64 0 0 0 2.77,-4.39 v -35.58 a 4.39,4.39 0 0 0 -3,-4.46 l 0.27,-0.45 a 12.26,12.26 0 0 0 3.69,0.45 h 9.21 a 15.31,15.31 0 0 0 3.76,-0.45 l 0.26,0.45 a 4.33,4.33 0 0 0 -2.44,2.59 l 18.77,22.34 v -20.47 a 4.46,4.46 0 0 0 -3,-4.46 l 0.26,-0.45 a 12,12 0 0 0 3.62,0.45 h 9.22 a 15.23,15.23 0 0 0 3.75,-0.45 l 0.26,0.45 a 4.49,4.49 0 0 0 -2.76,4.39 v 35.58 a 4.52,4.52 0 0 0 2.9,4.46 z" transform="translate(-99,-354.48)"/>
        <path style="fill:#000000" id="path187" class="cls-1" d="m 287.24,416.18 -0.26,0.45 a 12.05,12.05 0 0 0 -3.63,-0.45 h -9.21 a 14.79,14.79 0 0 0 -3.76,0.45 l -0.26,-0.45 a 4.65,4.65 0 0 0 2.44,-2.58 23.47,23.47 0 0 1 -10.41,2.45 22.5,22.5 0 0 1 -16.33,-6.65 22.4,22.4 0 0 1 0,-32 23.37,23.37 0 0 1 32.46,-0.19 q 2.5,2.38 4.42,2.39 a 5.94,5.94 0 0 0 1.77,-0.32 l 0.13,0.51 a 11.21,11.21 0 0 0 -3,2.14 l -6.58,6.26 a 11.71,11.71 0 0 0 -2.37,2.9 l -0.53,-0.12 a 4.57,4.57 0 0 0 0.33,-1.68 c 0,-1.3 -0.72,-2.65 -2.17,-4.07 a 11.79,11.79 0 0 0 -16.4,0.06 11.31,11.31 0 0 0 0,16.21 11.33,11.33 0 0 0 8.23,3.36 11.46,11.46 0 0 0 6.92,-2.2 q 3.09,-2.19 3.09,-4.71 a 5.11,5.11 0 0 0 -2,-3.75 l 0.26,-0.45 a 12.58,12.58 0 0 0 3.76,0.45 h 9.21 a 12.05,12.05 0 0 0 3.63,-0.45 l 0.26,0.45 a 4.6,4.6 0 0 0 -3,4.46 v 13 a 4.44,4.44 0 0 0 3,4.46 z" transform="translate(-99,-354.48)"/>
        <path style="fill:#000000" id="path189" class="cls-1" d="m 325.41,418.83 -0.46,0.25 a 4.69,4.69 0 0 0 -4.54,-2.9 h -27.26 a 12.72,12.72 0 0 0 -3.69,0.45 l -0.26,-0.45 a 4.38,4.38 0 0 0 3,-4.46 v -35.58 a 4.65,4.65 0 0 0 -2.76,-4.39 l 0.26,-0.39 a 14.29,14.29 0 0 0 3.76,0.46 h 26.92 a 4.62,4.62 0 0 0 4.55,-2.91 l 0.46,0.26 a 11.2,11.2 0 0 0 -0.46,3.55 v 9 a 11.37,11.37 0 0 0 0.46,3.68 l -0.46,0.26 a 4.67,4.67 0 0 0 -4.48,-2.71 h -16.83 v 5 h 11 a 4.65,4.65 0 0 0 4.47,-2.77 l 0.46,0.26 a 14.15,14.15 0 0 0 -0.46,3.68 v 9 a 12.1,12.1 0 0 0 0.46,3.61 l -0.39,0.26 a 4.61,4.61 0 0 0 -4.54,-2.9 h -11 V 405 h 16.86 a 4.75,4.75 0 0 0 4.52,-2.7 l 0.46,0.25 a 9.22,9.22 0 0 0 -0.52,3.68 l 0.06,9 a 11.17,11.17 0 0 0 0.46,3.56 z" transform="translate(-99,-354.48)"/>
        <path style="fill:#000000" id="path191" class="cls-1" d="m 373.81,394.16 a 21.61,21.61 0 0 1 -6.78,16 23.44,23.44 0 0 1 -32.59,0 22.29,22.29 0 0 1 0,-32 23.26,23.26 0 0 1 32.59,0 21.61,21.61 0 0 1 6.78,16 z m -11.39,0 a 10.79,10.79 0 0 0 -3.49,-8.07 11.14,11.14 0 0 0 -8.16,-3.42 11.42,11.42 0 0 0 -8.3,3.35 11.31,11.31 0 0 0 0,16.21 11.43,11.43 0 0 0 8.3,3.36 11.24,11.24 0 0 0 8.16,-3.36 10.79,10.79 0 0 0 3.49,-8.07 z" transform="translate(-99,-354.48)"/>
        <path style="fill:#000000" id="path193" class="cls-1" d="m 423.8,416.18 -0.26,0.39 a 11.94,11.94 0 0 0 -3.62,-0.46 h -9.22 a 14.7,14.7 0 0 0 -3.75,0.46 l -0.27,-0.39 a 5.29,5.29 0 0 0 2.44,-2.52 l -18.76,-22.28 v 20.34 a 4.6,4.6 0 0 0 3,4.46 l -0.26,0.39 a 12,12 0 0 0 -3.63,-0.46 h -9.21 a 13.86,13.86 0 0 0 -3.76,0.46 l -0.26,-0.39 a 4.66,4.66 0 0 0 2.77,-4.39 v -35.58 a 4.39,4.39 0 0 0 -3,-4.46 l 0.27,-0.45 a 12.23,12.23 0 0 0 3.68,0.45 h 9.22 a 15.17,15.17 0 0 0 3.75,-0.45 l 0.27,0.45 a 4.33,4.33 0 0 0 -2.44,2.59 l 18.77,22.34 v -20.47 a 4.46,4.46 0 0 0 -3,-4.46 l 0.27,-0.45 a 12,12 0 0 0 3.62,0.45 h 9.22 a 15.29,15.29 0 0 0 3.75,-0.45 l 0.26,0.45 a 4.49,4.49 0 0 0 -2.76,4.39 v 35.58 a 4.53,4.53 0 0 0 2.89,4.46 z" transform="translate(-99,-354.48)"/>
      </g>
    </g>
    <g style="fill:#000000" id="g719">
      <path style="fill:#000000" id="path717" class="cls-1" d="m 437,389.52 c 0,0.17 0.06,0.36 0.1,0.54 h 0.23 z" transform="translate(-99,-354.48)"/>
    </g>
  </g>
  <path id="path1533" style="display:none;fill:#ffffff;stroke-width:0.999999" d="m 392.47272,86.254245 c -4.04145,0.92483 -45.20391,-11.90736 -47.14868,-13.88731 -1.94476,-1.97996 -10.60827,-40.41679 -9.86597,-43.09099 0.74231,-2.67419 30.18824,-28.54267931 32.87531,-29.23691331 2.68707,-0.694235 40.8678,8.07675301 42.81256,10.05671331 1.94476,1.97996 13.77305,37.98572 13.03074,40.65991 -0.74231,2.67419 -27.78764,34.6024 -31.70396,35.49859 z" sodipodi:nodetypes="sssssss" clip-path="url(#clipPath1231)" transform="translate(-158.91484,1.2581283)"/>
  <g id="Capa_1-3" data-name="Capa 1" style="display:inline;fill:#ffffff" transform="translate(-158.53066,3.781113)" inkscape:label="Logo" clip-path="url(#clipPath1227)">
    <g id="g1840" style="display:inline;fill:#ffffff">
      <path class="cls-1" d="m 506.18,399.4 0.4,0.35 c 0,-0.15 0.05,-0.32 0.07,-0.48 z m -47.92,4.54 -0.82,2.57 h 2.07 l 1.35,-4.22 z" transform="translate(-99,-354.48)" id="path8-6" style="fill:#ffffff"/>
      <path class="cls-1" d="m 506.65,399.27 c 0,0.16 0,0.33 -0.07,0.48 l -0.4,-0.35 z" transform="translate(-99,-354.48)" id="path10-7" style="fill:#ffffff"/>
      <path class="cls-1" d="m 436.82,386.37 5,21.92 q 2.82,-1.94 6.24,-4.55 z m 6.67,29.16 1.42,6.21 7.82,-6.21 z m 39.51,-36.12 -11.58,-10 -1.59,5 a 13.09,13.09 0 0 1 3.53,3.46 11.12,11.12 0 0 1 2,6.33 13.93,13.93 0 0 1 -1.44,6.26 20,20 0 0 1 -5.21,6.3 87,87 0 0 1 -7.84,5.52 l -2.6,1.65 c -1.28,0.81 -2.66,1.66 -4.14,2.57 h 10.53 a 11.64,11.64 0 0 0 3.25,-0.27 2.56,2.56 0 0 0 1.19,-1.05 8.09,8.09 0 0 0 0.84,-2.69 l 0.25,-1.44 h 6.08 l -1.27,6.89 6.83,-1.87 a 29,29 0 0 1 -2.29,-12.34 q 0,-7.67 2.39,-12.54 c 0.35,-0.62 0.68,-1.19 1.07,-1.78 z m 15.66,36.87 a 19,19 0 0 1 -10.09,-2.53 16.68,16.68 0 0 1 -5.69,-5.89 l -8.18,2.24 -1.24,7 h -4.13 l -0.38,-1.53 h -9.16 l 31,21.17 9.09,-20.45 c -0.45,-0.02 -0.88,-0.01 -1.27,-0.01 z m -25.45,-47.91 10.93,9.41 a 17.09,17.09 0 0 1 4.53,-4.08 19.19,19.19 0 0 1 10.21,-2.61 19.82,19.82 0 0 1 8.62,1.79 l 0.07,-9.7 z m 44.68,24.8 a 43.74,43.74 0 0 1 -0.54,7.29 l 3.15,0.55 z m -11.56,8.26 -13.83,3.79 c 0.13,0.24 0.26,0.47 0.4,0.68 1.54,2.35 3.49,3.52 5.83,3.52 a 6.77,6.77 0 0 0 5.56,-3.09 v 0 0 0 q 0.17,-0.23 0.33,-0.48 a 12.13,12.13 0 0 0 1.53,-3.69 v 0 l 0.32,-0.73 z m -1.84,-20.14 a 6.86,6.86 0 0 0 -5.92,-3.34 c -2.26,0 -4.15,1.18 -5.69,3.53 a 10.63,10.63 0 0 0 -1.22,2.77 l 15.23,13.11 c 0.09,-1.13 0.13,-2.35 0.13,-3.66 q -0.02,-8.56 -2.58,-12.41 z m 2.14,18.46 c 0,-0.15 0.05,-0.32 0.07,-0.48 l -0.47,0.13 z m -16,-6.05 a 32.35,32.35 0 0 0 1.15,9.67 l 14.49,-4 -15.09,-13 a 41.86,41.86 0 0 0 -0.64,7.33 z m 26.36,8.7 a 18.73,18.73 0 0 1 -1.25,3.58 18.06,18.06 0 0 1 -6.69,7.7 17.62,17.62 0 0 1 -6.87,2.37 v 0 L 494.92,432.38 520.07,403 Z M 509.46,368 v 6 a 16.49,16.49 0 0 1 2.81,2.33 z m -53.22,47.52 -0.17,-0.13 -0.16,0.13 -9.46,7.52 38.64,12.18 z m 10.26,-60.41 -27.07,23.53 3.57,-1.34 a 17,17 0 0 1 5.45,-4 22,22 0 0 1 9.84,-2.17 h 0.95 l 10.5,-4 z m -3.14,16.53 a 18.52,18.52 0 0 1 3.9,1.34 l 0.78,0.38 1.28,-4 z m -1.58,9.16 a 9.3,9.3 0 0 0 -6.15,-1.92 11,11 0 0 0 -4.95,1 8,8 0 0 0 -3.29,3 7.65,7.65 0 0 0 -1.19,4.1 15.65,15.65 0 0 0 0.19,2.13 l -5.11,0.45 8.37,12.92 q 3.06,-2.38 6.54,-5.26 a 31.1,31.1 0 0 0 6.28,-6.49 c 0.14,-0.22 0.27,-0.44 0.39,-0.65 a 9.43,9.43 0 0 0 1.21,-4.35 2.17,2.17 0 0 0 0,-0.26 6,6 0 0 0 -2.29,-4.66 z m -20.69,-0.69 -4.78,1.89 3.42,5.27 c 0,-0.2 0,-0.4 0,-0.6 a 15,15 0 0 1 1.36,-6.55 z m 27.29,-25.64 3.23,12.13 31.4,-4.75 z m -27.29,25.64 -4.78,1.89 3.42,5.27 c 0,-0.2 0,-0.4 0,-0.6 a 15,15 0 0 1 1.36,-6.55 z m 20.69,0.69 a 9.3,9.3 0 0 0 -6.15,-1.92 11,11 0 0 0 -4.95,1 8,8 0 0 0 -3.29,3 7.65,7.65 0 0 0 -1.19,4.1 15.65,15.65 0 0 0 0.19,2.13 l -5.11,0.45 8.37,12.92 q 3.06,-2.38 6.54,-5.26 a 31.1,31.1 0 0 0 6.28,-6.49 l 1.6,-5 a 2.17,2.17 0 0 0 0,-0.26 6,6 0 0 0 -2.29,-4.66 z" transform="translate(-99,-354.48)" id="path12-5" style="fill:#ffffff"/>
      <path class="cls-1" d="m 439.72,386.62 c 0,0.2 0,0.4 0,0.6 l -3.41,-5.22 4.78,-1.83 a 15,15 0 0 0 -1.37,6.45 z" transform="translate(-99,-354.48)" id="path14-3" style="fill:#ffffff"/>
      <path class="cls-1" d="m 464.08,385.52 a 2.17,2.17 0 0 1 0,0.26 l -1.6,5 a 31.1,31.1 0 0 1 -6.28,6.49 q -3.48,2.88 -6.54,5.26 l -8.37,-12.92 5.11,-0.45 a 15.65,15.65 0 0 1 -0.19,-2.13 7.65,7.65 0 0 1 1.19,-4.1 8,8 0 0 1 3.29,-3 11,11 0 0 1 4.95,-1 9.3,9.3 0 0 1 6.15,1.92 6,6 0 0 1 2.29,4.67 z" transform="translate(-99,-354.48)" id="path16-5" style="fill:#ffffff"/>
      <path class="cls-1" d="m 448.08,403.74 q -3.42,2.61 -6.24,4.55 l -5,-21.92 z" transform="translate(-99,-354.48)" id="path18-6" style="fill:#ffffff"/>
      <path class="cls-1" d="m 458.26,403.94 -0.82,2.57 h -3.32 c 1.48,-0.91 2.88,-1.76 4.14,-2.57 z" transform="translate(-99,-354.48)" id="path20-2" style="fill:#ffffff"/>
      <polygon class="cls-1" points="345.91,67.26 344.49,61.05 353.73,61.05 " id="polygon22-9" style="fill:#ffffff"/>
      <polygon class="cls-1" points="347.44,68.58 356.91,61.05 357.24,61.05 386.08,80.75 " id="polygon24-1" style="fill:#ffffff"/>
      <path class="cls-1" d="m 499.83,416.25 -9.09,20.45 -31,-21.17 h 9.16 l 0.38,1.53 h 4.13 l 1.24,-7 8.18,-2.24 a 16.68,16.68 0 0 0 5.69,5.89 19,19 0 0 0 10.09,2.53 c 0.39,0.04 0.82,0.03 1.22,0.01 z" transform="translate(-99,-354.48)" id="path26-2" style="fill:#ffffff"/>
      <path class="cls-1" d="m 520.07,403 -25.25,29.43 7.26,-16.33 v 0 a 17.62,17.62 0 0 0 6.87,-2.37 18.06,18.06 0 0 0 6.69,-7.7 18.73,18.73 0 0 0 1.25,-3.58 z" transform="translate(-99,-354.48)" id="path28-7" style="fill:#ffffff"/>
      <path class="cls-1" d="m 520.45,401 -3.15,-0.55 a 43.74,43.74 0 0 0 0.54,-7.29 z" transform="translate(-99,-354.48)" id="path30-0" style="fill:#ffffff"/>
      <path class="cls-1" d="m 512.23,376.32 a 16.49,16.49 0 0 0 -2.81,-2.33 v -6 z" transform="translate(-99,-354.48)" id="path32-9" style="fill:#ffffff"/>
      <path class="cls-1" d="m 482,381.19 q -2.4,4.88 -2.39,12.54 a 29,29 0 0 0 2.29,12.34 l -6.9,1.87 1.22,-6.88 h -6.08 l -0.25,1.44 a 8.09,8.09 0 0 1 -0.84,2.69 2.56,2.56 0 0 1 -1.19,1.05 11.64,11.64 0 0 1 -3.25,0.27 h -5.14 l 1.35,-4.22 a 87,87 0 0 0 7.84,-5.52 20,20 0 0 0 5.21,-6.3 13.93,13.93 0 0 0 1.44,-6.26 11.12,11.12 0 0 0 -2,-6.33 13.09,13.09 0 0 0 -3.53,-3.46 l 1.59,-5 11.58,10 c -0.34,0.58 -0.67,1.15 -0.95,1.77 z" transform="translate(-99,-354.48)" id="path34-3" style="fill:#ffffff"/>
      <path class="cls-1" d="m 469.32,369.38 -1.28,4 -0.78,-0.38 a 18.52,18.52 0 0 0 -3.9,-1.34 z" transform="translate(-99,-354.48)" id="path36-6" style="fill:#ffffff"/>
      <path class="cls-1" d="m 507.52,363.18 -0.07,9.7 a 19.82,19.82 0 0 0 -8.62,-1.79 19.19,19.19 0 0 0 -10.21,2.61 17.09,17.09 0 0 0 -4.53,4.08 l -10.93,-9.41 z" transform="translate(-99,-354.48)" id="path38-0" style="fill:#ffffff"/>
      <polygon class="cls-1" points="372.6,12.14 369.37,0 404,7.39 " id="polygon40-6" style="fill:#ffffff"/>
      <path class="cls-1" d="m 469.7,367.11 -10.5,4 h -0.95 a 22,22 0 0 0 -9.84,2.17 17,17 0 0 0 -5.45,4 l -3.53,1.35 27.07,-23.53 z" transform="translate(-99,-354.48)" id="path42-2" style="fill:#ffffff"/>
      <path class="cls-1" d="m 504.26,406.29 1.86,-4.17 a 12.13,12.13 0 0 1 -1.53,3.69 q -0.16,0.26 -0.33,0.48 z" transform="translate(-99,-354.48)" id="path44-6" style="fill:#ffffff"/>
      <path class="cls-1" d="m 456.07,415.4 -0.16,0.13 h 0.33 z" transform="translate(-99,-354.48)" id="path46-1" style="fill:#ffffff"/>
      <path class="cls-1" d="m 506.28,401.43 c 0,0.23 -0.1,0.46 -0.16,0.68 l 0.32,-0.73 z" transform="translate(-99,-354.48)" id="path48-8" style="fill:#ffffff"/>
      <path class="cls-1" d="m 506.28,401.43 c 0,0.23 -0.1,0.46 -0.16,0.68 v 0 l -1.86,4.17 v 0 0 0 a 6.77,6.77 0 0 1 -5.56,3.09 c -2.34,0 -4.29,-1.17 -5.83,-3.52 -0.14,-0.21 -0.27,-0.44 -0.4,-0.68 z" transform="translate(-99,-354.48)" id="path50-7" style="fill:#ffffff"/>
      <path class="cls-1" d="m 506.18,399.4 -14.49,4 a 32.35,32.35 0 0 1 -1.15,-9.67 41.86,41.86 0 0 1 0.55,-7.28 z" transform="translate(-99,-354.48)" id="path52-9" style="fill:#ffffff"/>
      <path class="cls-1" d="m 507,393.7 c 0,1.31 0,2.53 -0.13,3.66 l -15.23,-13.11 a 10.63,10.63 0 0 1 1.22,-2.77 c 1.54,-2.35 3.43,-3.53 5.69,-3.53 a 6.86,6.86 0 0 1 5.92,3.34 q 2.53,3.86 2.53,12.41 z" transform="translate(-99,-354.48)" id="path54-2" style="fill:#ffffff"/>
    </g>
  </g>
  <path id="path1814-5" style="display:none;fill:url(#radialGradient1991-3);fill-opacity:1;stroke-width:0.999999" d="m 392.47273,86.254255 c -4.04145,0.92483 -45.20392,-11.90736 -47.14868,-13.88731 -1.94476,-1.97995 -10.60828,-40.41679 -9.86597,-43.09098 0.74231,-2.6742 30.18823,-28.54269031 32.87531,-29.23692531 2.68707,-0.694234 40.8678,8.07675501 42.81256,10.05671531 1.94476,1.97995 13.77304,37.98572 13.03074,40.6599 -0.74232,2.6742 -27.78764,34.60241 -31.70396,35.4986 z" mask="none" inkscape:label="Luz2" clip-path="url(#clipPath1223)" transform="translate(-158.91484,1.2581283)"/>
  <path id="path1814" style="display:none;fill:url(#radialGradient1991);fill-opacity:1;stroke-width:0.999999" d="m 392.47273,86.254255 c -4.04145,0.92483 -45.20392,-11.90736 -47.14868,-13.88731 -1.94476,-1.97995 -10.60828,-40.41679 -9.86597,-43.09098 0.74231,-2.6742 30.18823,-28.54269031 32.87531,-29.23692531 2.68707,-0.694234 40.8678,8.07675501 42.81256,10.05671531 1.94476,1.97995 13.77304,37.98572 13.03074,40.6599 -0.74232,2.6742 -27.78764,34.60241 -31.70396,35.4986 z" mask="none" inkscape:label="Luz1" clip-path="url(#clipPath1219)" transform="translate(-158.91484,1.2581283)"/>
  <text xml:space="preserve" style="font-style:normal;font-variant:normal;font-weight:normal;font-stretch:normal;font-size:64px;line-height:1.25;font-family:NotMaryKate;-inkscape-font-specification:NotMaryKate;display:none" x="-33.091354" y="66.374161" id="text1169" inkscape:label="Absolute empire"><tspan sodipodi:role="line" id="tspan1167" x="-158.91484" y="1.2581283" style="font-style:normal;font-variant:normal;font-weight:normal;font-stretch:normal;font-size:64px;font-family:'a Absolute Empire';-inkscape-font-specification:'a Absolute Empire'">NIVEL</tspan></text>
  <text xml:space="preserve" style="font-style:normal;font-variant:normal;font-weight:normal;font-stretch:normal;font-size:64px;line-height:1.25;font-family:'Ten Pin';-inkscape-font-specification:'Ten Pin';display:none" x="29.48558" y="67.511002" id="text1165" inkscape:label="Ten Pin"><tspan sodipodi:role="line" id="tspan1163" x="-158.91484" y="1.2581283" style="font-style:normal;font-variant:normal;font-weight:normal;font-stretch:normal;font-size:64px;font-family:'Ten Pin';-inkscape-font-specification:'Ten Pin'">NIVEL</tspan></text>
  <g aria-label="NIVEL" transform="translate(-160.91484,1.2581283)" id="text1178" clip-path="url(#clipPath1215)" style="font-style:normal;font-variant:normal;font-weight:normal;font-stretch:normal;font-size:64px;line-height:1.25;font-family:'Reactive Anchor';-inkscape-font-specification:'Reactive Anchor';display:inline;fill:#ffffff" inkscape:label="Reactive Anchor" inkscape:export-xdpi="407" inkscape:export-ydpi="407">
    <path d="m 162.89531,22.346626 h 13.34375 l 13.15625,23.3125 v -23.3125 h 13.34375 l -2.375,6.40625 v 31.09375 l 2.375,6.40625 h -13.34375 l -13.15625,-22.53125 v 22.53125 h -13.34375 l 2.34375,-6.40625 v -31.09375 z" style="font-style:normal;font-variant:normal;font-weight:normal;font-stretch:normal;font-size:64px;font-family:'Reactive Anchor';-inkscape-font-specification:'Reactive Anchor';fill:#ffffff" id="path920"/>
    <path d="m 206.89531,66.252876 2.34375,-8.75 v -28.71875 l -2.34375,-6.40625 h 15.6875 l -2.375,6.40625 v 28.71875 l 2.375,8.75 z" style="font-style:normal;font-variant:normal;font-weight:normal;font-stretch:normal;font-size:64px;font-family:'Reactive Anchor';-inkscape-font-specification:'Reactive Anchor';fill:#ffffff" id="path922"/>
    <path d="m 225.67656,22.346626 h 13.96875 l 8.25,23.59375 7.125,-20.3125 -0.875,-3.28125 h 13.65625 l -15.375,43.90625 h -11.375 l 1.03125,-3.78125 -11.8125,-33.71875 z" style="font-style:normal;font-variant:normal;font-weight:normal;font-stretch:normal;font-size:64px;font-family:'Reactive Anchor';-inkscape-font-specification:'Reactive Anchor';fill:#ffffff" id="path924"/>
    <path d="m 298.80156,69.565376 -2.90625,-3.28125 -23.875,-0.03125 1.21875,-3.28125 v -37.28125 l -1.21875,-3.3125 h 30.03125 l -2.34375,8.78125 -0.90625,3.28125 -2.90625,-3.28125 h -11.6875 v 11.625 h 10.90625 l -2.34375,8.78125 h -8.5625 v 5.9375 h 17.84375 z" style="font-style:normal;font-variant:normal;font-weight:normal;font-stretch:normal;font-size:64px;font-family:'Reactive Anchor';-inkscape-font-specification:'Reactive Anchor';fill:#ffffff" id="path926"/>
    <path d="m 333.05156,69.565376 -2.90625,-3.28125 -23.875,-0.03125 2.34375,-6.375 v -31.09375 l -2.34375,-6.40625 h 13.3125 v 35.125 h 16.71875 l -2.375,8.78125 z" style="font-style:normal;font-variant:normal;font-weight:normal;font-stretch:normal;font-size:64px;font-family:'Reactive Anchor';-inkscape-font-specification:'Reactive Anchor';fill:#ffffff" id="path928"/>
  </g>
</svg>